# xmcd CD database file
#
# Track frame offsets:
#	150
#	18671
#	35967
#	47499
#	62223
#	77665
#	95741
#	114152
#	137327
#	147948
#	166593
#	188268
#	212808
#	229881
#	250967
#	263414
#	278218
#	295785
#	312912
#	330744
#
# Disc length: 4656 seconds
#
# Revision: 1
# Processed by: cddbd v1.5.2PL0 Copyright (c) Steve Scherf et al.
# Submitted via: CDex 1.77
#
DISCID=18122e14
DTITLE=Various Artist - Bluesfest 2013 [CD1]
DYEAR=2013
DGENRE=Blues
TTITLE0=Paul Simon - So Beautiful Or So What
TTITLE1=Robert Plant - Angel Dance
TTITLE2=Chris Isaak - Live It Up
TTITLE3=Ben Harper and Charlie Musselwhite - I Don't Believe A Word You Say
TTITLE4=Jimmy Cliff - One More
TTITLE5=Status Quo - Whatever You Want
TTITLE6=Rufus Wainwright - Out Of The Game
TTITLE7=Ben Howard - The Wolves
TTITLE8=Michael Kiwanuka - I'm Getting Ready
TTITLE9=Playing For Change - Redemption Song
TTITLE10=Taj Mahal - Leaving Trunk
TTITLE11=Grace Potter and The Nocturnals - The Lion The Beast And The Beat
TTITLE12=Damien Dempsey - Almighty Love
TTITLE13=Mark Seymour and The Undertow - Castlemaine
TTITLE14=The Wilson Pickers - Shake It Down
TTITLE15=Kitty Daisy and Lewis - Going Up The Country
TTITLE16=Karise Eden - Hallelujah
TTITLE17=Glen Hansard - You Will Become
TTITLE18=Mavis Staples - You Are Not Alone 
TTITLE19=Jake Shimabukuro - While My Guitar Gently Weeps
EXTD=YEAR: 2013
EXTT0=
EXTT1=
EXTT2=
EXTT3=
EXTT4=
EXTT5=
EXTT6=
EXTT7=
EXTT8=
EXTT9=
EXTT10=
EXTT11=
EXTT12=
EXTT13=
EXTT14=
EXTT15=
EXTT16=
EXTT17=
EXTT18=
EXTT19=
PLAYORDER=
